<svg xlink="http://www.w3.org/1999/xlink" viewBox="0 0 5000 5000" xmlns="http://www.w3.org/2000/svg" style="transform: scale(1);">
    <defs>
        <filter id="goo">
            <feGaussianBlur in="SourceGraphic" stdDeviation="0" result="blur"></feGaussianBlur>
            <feColorMatrix in="blur" type="matrix" values="1 0 0 0 0 0 1 0 0 0 0 0 1 0 0 0 0 0 19 -9" result="good"></feColorMatrix>
            <feComposite in="SourceGraphic" in2="goo" operator="atop"></feComposite>
        </filter>
        <path d="M222,179C250,169 262,219 270,226C278,232 327,230 325,260C321,289 271,275 261,279C250,283 220,325 202,309C183,293 218,258 219,246C221,234 199,188 222,179z" id="P0"></path>
        <path d="M188,230C193,214 229,228 238,224C244,220 254,183 270,188C286,193 272,229 275,236C279,242 318,250 312,270C307,286 271,272 264,275C258,279 250,318 230,312C214,307 228,271 225,264C221,258 182,250 188,230z" id="P1"></path>
        <path d="M186,229C190,217 227,231 233,226C237,223 233,183 250,183C263,182 261,222 267,226C272,229 308,213 314,229C318,241 280,252 278,259C277,265 303,294 289,304C279,312 258,279 250,279C244,280 225,314 211,304C200,297 224,266 222,259C220,254 181,246 186,229z" id="P2"></path>
        <path d="M269,280C257,286 245,274 239,270C232,267 217,266 215,252C215,239 231,234 238,231C245,226 257,214 267,219C277,225 272,240 273,249C273,258 279,274 269,280z" id="P3"></path>
        <path d="M257,286C248,288 242,273 237,270C232,267 216,269 214,257C212,248 227,242 230,237C233,232 231,216 243,214C252,212 258,227 264,231C269,234 285,234 286,243C288,252 273,258 269,264C266,269 266,285 257,286z" id="P4"></path>
        <path d="M269,277C264,281 256,273 250,273C246,273 237,282 231,277C225,273 230,262 229,257C227,253 216,248 219,240C220,234 232,235 237,232C240,229 242,217 250,217C256,217 259,228 263,232C267,234 279,232 281,240C284,246 273,251 271,257C270,261 276,272 269,277z" id="P5"></path>
        <path d="M183,218C196,193 238,220 248,219C258,219 292,184 310,207C326,230 282,254 278,263C272,274 279,323 255,324C231,325 233,277 225,268C218,258 172,240 183,218z" id="P6"></path>
        <path d="M245,164C267,162 265,219 273,226C279,231 335,222 336,245C338,267 281,265 274,273C269,279 278,335 255,336C233,338 235,281 229,276C222,270 167,283 164,255C162,233 219,235 224,229C230,222 217,167 245,164z" id="P7"></path>
        <path d="M197,279C191,269 221,254 222,246C223,241 196,220 206,209C214,200 238,224 245,222C250,221 262,189 276,196C286,200 271,230 275,237C277,241 311,242 310,258C309,269 275,264 270,269C267,273 276,306 261,309C250,312 245,278 238,275C233,273 205,292 197,279z" id="P8"></path>
    </defs>
    <rect id="RECT" width="5000" height="5000" fill="#E39A9D"></rect>
    <g id="group" fill="#FFF" filter="" opacity="0.87">
        <use x="-36" y="-189" href="#P7"></use>
        <use x="409" y="454" href="#P2"></use>
        <use x="-142" y="1682" href="#P1"></use>
        <use x="186" y="2393" href="#P1"></use>
        <use x="-160" y="2952" href="#P7"></use>
        <use x="66" y="3457" href="#P5"></use>
        <use x="182" y="3884" href="#P7"></use>
        <use x="-50" y="4491" href="#P1"></use>
        <use x="173" y="5458" href="#P2"></use>
        <use x="985" y="42" href="#P3"></use>
        <use x="520" y="1029" href="#P6"></use>
        <use x="589" y="1588" href="#P0"></use>
        <use x="1091" y="2041" href="#P8"></use>
        <use x="771" y="2961" href="#P6"></use>
        <use x="566" y="3164" href="#P2"></use>
        <use x="814" y="3871" href="#P6"></use>
        <use x="869" y="4848" href="#P2"></use>
        <use x="818" y="5544" href="#P2"></use>
        <use x="1151" y="-177" href="#P8"></use>
        <use x="1804" y="771" href="#P2"></use>
        <use x="1167" y="1404" href="#P4"></use>
        <use x="1147" y="2192" href="#P0"></use>
        <use x="1642" y="3071" href="#P8"></use>
        <use x="1375" y="3502" href="#P4"></use>
        <use x="1480" y="4268" href="#P0"></use>
        <use x="1205" y="4761" href="#P2"></use>
        <use x="1160" y="5564" href="#P3"></use>
        <use x="1976" y="402" href="#P2"></use>
        <use x="2153" y="509" href="#P3"></use>
        <use x="2278" y="1414" href="#P3"></use>
        <use x="2421" y="2167" href="#P8"></use>
        <use x="2018" y="2414" href="#P1"></use>
        <use x="2081" y="3691" href="#P5"></use>
        <use x="1901" y="4288" href="#P1"></use>
        <use x="2333" y="4831" href="#P8"></use>
        <use x="2175" y="5367" href="#P3"></use>
        <use x="3117" y="-23" href="#P5"></use>
        <use x="2673" y="493" href="#P2"></use>
        <use x="3082" y="1661" href="#P3"></use>
        <use x="3164" y="2070" href="#P6"></use>
        <use x="2604" y="2590" href="#P6"></use>
        <use x="2536" y="3606" href="#P5"></use>
        <use x="2556" y="4052" href="#P8"></use>
        <use x="2791" y="4863" href="#P1"></use>
        <use x="2563" y="5070" href="#P4"></use>
        <use x="3299" y="99" href="#P3"></use>
        <use x="3202" y="670" href="#P3"></use>
        <use x="3459" y="1407" href="#P8"></use>
        <use x="3236" y="2022" href="#P8"></use>
        <use x="3333" y="2746" href="#P7"></use>
        <use x="3635" y="3279" href="#P7"></use>
        <use x="3775" y="4034" href="#P7"></use>
        <use x="3460" y="5047" href="#P5"></use>
        <use x="3764" y="5540" href="#P3"></use>
        <use x="3991" y="262" href="#P3"></use>
        <use x="4120" y="885" href="#P7"></use>
        <use x="3975" y="1544" href="#P1"></use>
        <use x="4246" y="1907" href="#P1"></use>
        <use x="3919" y="2537" href="#P5"></use>
        <use x="3905" y="3315" href="#P1"></use>
        <use x="3910" y="3987" href="#P6"></use>
        <use x="4290" y="4493" href="#P2"></use>
        <use x="4012" y="5519" href="#P0"></use>
        <use x="4945" y="284" href="#P1"></use>
        <use x="5139" y="735" href="#P7"></use>
        <use x="5174" y="1735" href="#P0"></use>
        <use x="4982" y="2219" href="#P1"></use>
        <use x="4803" y="2984" href="#P2"></use>
        <use x="4660" y="3110" href="#P4"></use>
        <use x="5063" y="3981" href="#P3"></use>
        <use x="4651" y="4622" href="#P1"></use>
        <use x="4594" y="5204" href="#P8"></use>
    </g>
</svg>