<?xml version="1.0" encoding="utf-8"?>
<!-- Generator: Adobe Illustrator 24.0.2, SVG Export Plug-In . SVG Version: 6.00 Build 0)  -->
<svg version="1.1" id="Layer_1" xmlns="http://www.w3.org/2000/svg" xmlns:xlink="http://www.w3.org/1999/xlink" x="0px" y="0px"
	 viewBox="0 0 714 714" style="enable-background:new 0 0 714 714;" xml:space="preserve">
<style type="text/css">
	.st0{fill:#E977AF;}
	.st1{fill:#D38859;}
	.st2{fill:#FFFFFF;}
	.st3{fill:#F7D7BC;}
	.st4{fill:#B9535C;}
	.st5{fill:#89494F;}
	.st6{fill:#020202;}
	.st7{fill:#D17E6E;}
	.st8{fill:#B07465;}
	.st9{fill:#967666;}
	.st10{fill:#624638;}
	.st11{fill:#291911;}
	.st12{fill:#FEE6D8;}
	.st13{fill:#AD7563;}
	.st14{fill:#CEA190;}
	.st15{fill:#9B444C;}
	.st16{fill:#F8B7BC;}
	.st17{fill:#EE265E;}
	.st18{fill:#5F5A59;}
	.st19{fill:#C6A877;}
	.st20{fill:#DAE0DE;}
	.st21{fill:#FCDCE1;}
	.st22{fill:#F1E1D4;}
	.st23{fill:#E2C8B7;}
	.st24{fill:#F492B6;}
	.st25{fill:#7C2A8B;}
	.st26{fill:#6194C7;}
	.st27{fill:#769041;}
	.st28{fill:#FCB316;}
	.st29{fill:#ED1C24;}
	.st30{fill:#FFF200;}
	.st31{fill:#008C4C;}
	.st32{fill:#FDBA12;}
	.st33{fill:#F26D75;}
	.st34{fill:#C85A61;}
	.st35{fill:#FFC60B;}
	.st36{fill:#8A683A;}
	.st37{fill:#7B6756;}
	.st38{fill:#90AC88;}
	.st39{fill:#7A8F6F;}
	.st40{fill:#BD966F;}
	.st41{fill:#D6885E;}
	.st42{fill:#FCDEB7;}
	.st43{fill:#7D341A;}
	.st44{fill:#AA5E3D;}
	.st45{fill:#F6A2AD;}
	.st46{fill:#EAB0A9;}
	.st47{fill:#DCDBDB;}
	.st48{fill:#383838;}
	.st49{fill:#444545;}
	.st50{fill:#A09F9F;}
</style>
<g>
	<path class="st22" d="M309.4688721,168.3005066c0,0,86.5028992-6.7845306,98.3758545,0.8480682
		c11.8729553,7.6326141,10.1768188-111.0968628,11.8729553-123.8178711s22.0497437-10.176815,32.2265625-6.7845421
		c10.1768188,3.3922691,35.6188354,94.9835815,33.922699,127.210144s-19.5055542,66.997345-19.5055542,66.997345
		s4.2403259,11.8729553,24.5939636,27.1381683s-12.7210083,6.7845459-15.2652283,5.0884094
		c-2.5441895-1.6961365-3.3922729,19.5055542,6.7845459,26.2901001s-11.8729553-1.6961365-15.2651978-3.3922729
		c-3.3922729-1.6961365,15.2651978,35.6188354,22.0497437,44.9476013
		c6.7845459,9.3287354-3.3922729,18.6574707-10.1768188,17.8094177
		c-6.7845459-0.8480835,17.8094177,27.9862366,9.3287659,39.8591614c-8.4806824,11.8729553-16.9613647,2.54422-16.9613647,2.54422
		s24.5939636,29.682373,16.9613647,40.7072449c-7.6326294,11.0248718-2.54422,20.3536072-12.7210388,9.3287354
		c-10.1767883-11.0248718-10.1767883-11.0248718-10.1767883-11.0248718l10.1767883,28.8342896l-22.0497437-3.3922729
		c0,0,22.8978271,28.8343201,27.1381531,42.4033813c4.2403564,13.5690918-11.0248718-2.5441895-11.0248718-2.5441895
		s27.1381531,42.4033813,22.8978271,51.7321167s-4.2403259,9.3287354-4.2403259,9.3287354l-21.2016907-13.5690918
		c0,0,34.770752,71.2377319,44.9475708,72.0857544c10.1768188,0.8480835-22.0497437,5.0884399-22.0497437,5.0884399
		s26.2901001,22.0497437,24.5939331,45.7956543c-1.696106,23.7459106-18.6574707-8.4807129-18.6574707-8.4807129
		l5.9364624,25.4420776l-298.5198059,2.5441895l7.6325989-23.7459106l-11.8729401-20.3536377
		c0,0,32.2265625-13.5690308,30.530426-16.9613037c-1.6961212-3.3922729-29.6823578,6.7844849-29.6823578,6.7844849
		s8.4806671-40.7072144,30.530426-53.4282227s22.0497589-12.7210083,22.0497589-12.7210083l-32.2265625,7.6325684
		c0,0,4.2403412-38.1630249,22.0497589-60.2127686c17.8094177-22.0497742,14.4171448-32.226593,14.4171448-32.226593
		l-14.4171448-11.8729248l21.2016907-17.8094482l3.2843323-4.3833923c0,0-1.5976868,0.5325623-14.3790894,0
		s-11.1837158,3.195343-4.7930145-12.2488403s9.5860443-26.6279297,3.195343-25.5628052
		s-27.1604767,15.4441833-27.1604767,15.4441833s2.1302338-35.6813965,7.9883728-41.0069885
		c5.858139-5.3255615-4.2604675-3.195343-2.1302338-7.9883728s4.7930298-15.9767456,13.3139648-19.1720886
		s-30.888382-5.8581543,1.5976715-34.0837402c0,0-27.1604767,6.390686-20.7697754-5.325592
		s25.0302429-41.5395508,25.0302429-41.5395508s-28.7581482,5.325592-26.0953522-2.6627808
		c2.6627808-7.9883728,36.7465057-38.3442078,36.7465057-38.3442078s-38.3441925-42.60466-33.0186005-95.3279419
		c5.3255768-52.7232742,22.9000092-89.4697952,34.083725-97.9907303
		c11.1837463-8.5209351,14.9116516-7.4558182,14.9116516-7.4558182s15.9767456-4.2604656,18.6395264,24.4976845
		S290.2034302,149.5348358,309.4688721,168.3005066z"/>
	<path class="st11" d="M323.5949707,305.3978882c-2.0214844-9.4335938-12.9875488-11.0077515-21.0769043-11.1877441
		c-2.9060059-0.0646362-5.7895508,0.107605-8.6374512,0.4842529c-0.2419434-2.1759644-0.4836426-4.3519897-0.7255859-6.5279541
		c-0.3078613-2.7684937-2.2368164-5.4819946-5.3427734-5.3428345c-2.630127,0.1177979-5.673584,2.3679199-5.3430176,5.3428345
		c0.3139648,2.8234253,0.6279297,5.6468506,0.9416504,8.4702759c0.0148926,0.1356812,0.0371094,0.2709351,0.0600586,0.4060669
		c-0.53125,0.1705322-1.0593262,0.3503418-1.5861816,0.5351562c-0.114502-0.1678467-0.2177734-0.3388672-0.3481445-0.50177
		c-2.5124512-3.1422729-5.3603516-5.9528198-8.5356445-8.4237671c-2.2004395-1.7124023-5.4389648-2.3060913-7.5559082,0
		c-1.7578125,1.914917-2.3557129,5.7227173,0,7.5558472c2.3024902,1.7918701,4.4274902,3.7679443,6.3828125,5.9139404
		c-5.2905273,3.4951172-0.0344238,12.1470947,5.8522949,8.9471436c5.876709-3.194519,12.2180176-5.3323364,18.901123-5.9736938
		c3.4140625-0.3276367,15.7019043-1.5608521,16.7097168,3.1428833
		C314.730957,314.9591064,325.0341797,312.1151123,323.5949707,305.3978882z"/>
	<path class="st11" d="M459.0144043,300.524353c-2.2473145-2.416687-5.0749512-4.0715332-8.1479492-5.2542725
		c1.2224121-1.5100098,2.6252441-2.7591553,4.2949219-3.8206787c2.4326172-1.5466309,3.4118652-4.753479,1.916748-7.3099976
		c-1.4179688-2.4240112-4.8649902-3.4712524-7.3100586-1.916748c-4.1359863,2.6296387-7.6035156,6.1704712-10.0029297,10.4436646
		c-0.7983398-0.1102295-1.5910645-0.2127686-2.3686523-0.3071289c-0.1315918-0.0159912-0.2631836-0.0221558-0.3947754-0.0373535
		c0.8288574-0.6710815,1.4602051-1.5812378,1.7285156-2.6626587c0.796875-3.2113647,1.5935059-6.4227905,2.3903809-9.6341553
		c0.6943359-2.798645-0.9001465-5.7942505-3.7316895-6.5722656c-2.7351074-0.7515259-5.8747559,0.9197388-6.5722656,3.7316284
		c-0.796875,3.2113647-1.5935059,6.4227295-2.3903809,9.6340942c-0.4536133,1.8282471,0.0825195,3.7286377,1.2890625,5.0518799
		c-7.0668945-0.0665894-14.0888672,0.9255371-20.9511719,2.8457031c-6.6125488,1.8502197-3.8034668,12.1630249,2.8408203,10.3039551
		c7.0307617-1.9672852,14.1103516-2.8435059,21.4130859-2.3922119c5.6818848,0.3511353,14.3110352,1.0120239,18.4404297,5.4524536
		C456.1518555,313.1269531,463.6950684,305.5576172,459.0144043,300.524353z"/>
	<path class="st23" d="M354.4164429,299.7510071c26.3652954-6.4305725,45.7956543,28.8342896,52.5802002,41.5552979
		c6.7845459,12.7210388,12.7210388,41.5553284,7.6326294,53.4282837
		c-5.0884094,11.8729248-31.3785095,22.8978271-31.3785095,22.8978271s0,13.5690613-13.5690918,14.4171448
		c-13.5690918,0.848053-32.2265625-1.6961365-33.922699-13.5690918c0,0-27.9862366-12.7210083-27.1381836-28.8342896
		C309.4688721,373.5328979,319.6456909,308.2316895,354.4164429,299.7510071z"/>
	<path class="st11" d="M387.0463867,395.9916382c-5.4116211,6.3833008-15.1125488,8.0734253-22.3776855,4.0419312
		c0.2666016-0.8482056,0.3537598-1.7811279,0.3427734-2.7175293c-0.0288086-2.4866943-0.107666-4.9738159-0.161377-7.460144
		c-0.1113281-5.151062-0.2229004-10.302124-0.3344727-15.453186c-0.0058594-0.2745361-0.0646973-0.5142822-0.1594238-0.7231445
		c2.1992188,0.2260742,4.5876465,0.0675049,7.2487793-0.5871582c8.4631348-2.0817871,15.9741211-10.3884277,12.1669922-19.416687
		c-1.8029785-4.2754517-6.9768066-5.3123779-9.7653809-1.2763062c-2.8195801,4.0811157-7.6694336,8.6254272-12.8105469,9.5841064
		c-3.4284668-1.9876709-6.5939941-5.7971191-9.1662598-7.9942017c-1.8581543-1.586853-4.0187988-1.6425171-5.7932129-0.8604736
		c-0.545166-0.4815674-1.0571289-0.9199829-1.5227051-1.2861938c-5.3469238-4.2046509-12.9599609,3.3063965-7.5561523,7.5558472
		c6.7260742,5.2891846,14.190918,14.1130371,23.387207,13.4696655c0.3012695,0.0984497,0.609375,0.1821899,0.9172363,0.2658081
		c-0.3151855,0.2863159-0.5205078,0.7076416-0.5083008,1.2687378c0.0959473,4.4406128,0.1921387,8.8811646,0.2883301,13.3217163
		c0.0458984,2.1314697,0.092041,4.2629395,0.1381836,6.3944092c0.0229492,1.0654907,0.0585938,2.1315308,0.0693359,3.1972046
		c0.0078125,0.7774658,0.1381836,1.7017212-0.5839844,2.1898804c-0.5395508,0.3649292-1.4675293,0.3403931-2.0849609,0.3618164
		c-0.9599609,0.0332642-1.921875,0.0432129-2.8823242,0.050293c-1.8076172,0.0133057-3.6176758-0.0140991-5.4204102-0.1553345
		c-3.6772461-0.2880859-7.2695312-1.1501465-10.3989258-3.1603394c-1.9345703-1.2424316-3.7226562,1.8393555-1.7978516,3.0755615
		c3.6618652,2.3520508,7.9042969,3.3099365,12.1967773,3.6466675c2.1025391,0.164917,4.2141113,0.175293,6.3220215,0.1451416
		c1.8105469-0.0258789,3.791748,0.059021,5.4770508-0.710144c8.5712891,5.28125,20.751709,3.4603882,27.2878418-4.2492676
		C391.0390625,396.7716064,388.5314941,394.2399902,387.0463867,395.9916382z"/>
	<g>
		<path class="st21" d="M443.4596863,347.9664307c6.2151184-0.6069336,12.4302063-1.2138977,18.6453247-1.8208313
			c5.4244385-0.5297546,10.0920105-4.2591553,10.0920105-10.0920105c0-5.046936-4.634491-10.6249695-10.0920105-10.0920105
			c-6.2151184,0.6069641-12.4302063,1.2138977-18.6453247,1.8208618
			c-5.4244385,0.5297241-10.0920105,4.2591553-10.0920105,10.0920105
			C433.3676758,342.9213867,438.0021973,348.4994202,443.4596863,347.9664307L443.4596863,347.9664307z"/>
	</g>
	<g>
		<path class="st24" d="M261.1256104,348.9314575c6.7838745,0.2981262,13.5677185,0.596283,20.351593,0.8944397
			c5.4503174,0.2395325,10.0920105-4.8098145,10.0920105-10.0920105c0-5.6655579-4.625-9.8517151-10.0920105-10.0920105
			c-6.7838745-0.2981262-13.5677185-0.596283-20.351593-0.8944397c-5.4503021-0.2395325-10.0919952,4.8098145-10.0919952,10.0920105
			C251.0336151,344.5050049,255.6586151,348.6911621,261.1256104,348.9314575L261.1256104,348.9314575z"/>
	</g>
	<path class="st24" d="M288.6235352,194.4672241c-6.9990234-17.8848877-10.7927246-36.6299438-10.7561035-55.8009644
		c0.1594238-1.7053833,0.2387695-3.423584,0.1960449-5.161438c-0.0073242-0.3017578-0.0361328-0.5892944-0.0646973-0.8770752
		c0.1374512-4.3060913,0.0627441-8.5155029-3.2080078-11.9613037c-3.3666992-3.5470581-8.3496094-4.8876953-13.0847168-3.4533691
		c-8.8459473,2.6793823-13.2209473,12.4806519-15.1193848,20.7652588
		c-2.1047363,9.1849976-2.3601074,18.9227295-2.465332,28.3067017c-0.111084,9.916748-0.6782227,20.9370117,2.5788574,30.4407959
		c1.7971191,5.2435913,5.034668,10.2633667,9.4067383,13.7720337c1.6062012,3.6398315,3.9904785,6.8380127,7.6330566,9.0081787
		c10.4179688,6.2067261,17.1650391-4.5736084,22.581543-12.1360474c0.4719238-0.588623,0.9284668-1.1953125,1.348877-1.8407593
		c1.2773438-1.961731,1.6225586-4.2941284,1.2468262-6.5281982
		C289.2480469,197.5054932,289.2041016,195.9502563,288.6235352,194.4672241z"/>
	<path class="st24" d="M471.2807617,125.5512695c0.0490723-1.552124,0.0900879-3.1047363,0.1101074-4.6583252
		c0.0554199-4.2717896-2.0483398-7.1251221-4.911377-8.586853c-2.3527832-3.9161377-6.4528809-6.4846191-11.4013672-5.0391235
		c-15.9250488,4.6518555-16.2521973,28.7340698-16.5524902,42.1763916
		c-0.2670898,11.9577026,0.7258301,24.0471191-0.234375,35.9606323c-4.6652832,2.3982544-7.8713379,8.0159912-4.6826172,13.9893799
		c0.6560059,1.229187,1.4040527,2.6328735,2.2338867,4.1166382c0.3742676,2.5559082,1.7399902,4.5632935,3.598877,5.9227905
		c5.0830078,7.5735474,12.0744629,14.4317627,20.5458984,10.3022461
		c11.1572266-5.4385986,14.8203125-21.3108521,15.5026855-32.4863892
		C476.7185059,167.1234131,476.7387695,145.3502197,471.2807617,125.5512695z"/>
	<g>
		<path class="st19" d="M271.1036377,430.7486267c7.132843,11.3291626,21.5932312,16.3318176,34.111084,11.2315674
			c1.4835205-0.6044617,2.5338135-1.974884,2.0731201-3.6512756c-0.386322-1.4057312-2.1577759-2.6816711-3.6512756-2.0731506
			c-10.0332336,4.0879517-21.5745239,0.7603149-27.4069824-8.5033875
			C274.1990662,424.5272827,269.0601501,427.5029907,271.1036377,430.7486267L271.1036377,430.7486267z"/>
	</g>
	<g>
		<path class="st19" d="M274.4839478,475.65802c3.2407227,5.6212769,10.1699524,7.6639404,16.1308289,8.8960571
			c7.0582886,1.4589844,14.221405,1.5322266,21.3242188,0.3676758c1.5831909-0.259552,2.4655151-2.2234802,2.0731506-3.6512756
			c-0.4621277-1.6815491-2.0634766-2.3334656-3.6512756-2.0731506c-5.8054199,0.9518433-11.8527832,0.8726807-17.6270752-0.2587585
			c-4.3978882-0.8617554-10.676239-2.0311584-13.1238708-6.276825
			C277.7023315,469.3528748,272.5705261,472.3390198,274.4839478,475.65802L274.4839478,475.65802z"/>
	</g>
	<g>
		<path class="st19" d="M344.8659058,444.5116882c1.0127258,3.4234924,3.497345,6.2322388,6.6799316,7.8296204
			c3.8544922,1.9346313,8.109314,2.0879822,12.309967,1.4906311c8.1940002-1.1652222,16.2653503-4.3045959,23.5175781-8.2180786
			c3.3633118-1.8149414,0.3693237-6.9421082-2.9962463-5.1259766c-6.0644836,3.2725525-12.5603638,5.7075195-19.3097229,7.1272278
			c-4.8270569,1.0153809-12.7026978,1.316803-14.4770813-4.6815491
			C349.5090637,439.2783813,343.7781372,440.8345032,344.8659058,444.5116882L344.8659058,444.5116882z"/>
	</g>
	<g>
		<path class="st19" d="M412.9378662,437.2631836c2.9341125,2.935791,6.9647827,3.9084778,10.9914551,4.1324463
			c4.0777283,0.2268066,8.2229309-0.1832886,12.2203369-0.9891052c8.2014465-1.6532898,15.8146973-5.4164429,22.2766724-10.6960144
			c1.2423096-1.0149841,1.0534668-3.1442566,0-4.1977234c-1.2284546-1.2284546-2.952301-1.0175171-4.1977234,0
			c-5.4102173,4.4202576-11.8861694,7.4465027-18.6919556,8.9644165c-3.3611145,0.7496643-6.7824097,1.0844116-10.2257996,1.028656
			c-2.8539429-0.0462036-6.0523071-0.3162231-8.1752625-2.4403992
			C414.431427,430.3597412,410.232605,434.556366,412.9378662,437.2631836L412.9378662,437.2631836z"/>
	</g>
	<g>
		<path class="st19" d="M337.4023132,488.9291992c3.1563721,6.5850525,10.5374756,9.896637,17.5492554,10.1373901
			c8.5048218,0.2920227,16.3862305-4.0069275,23.5888977-8.0123291c3.339447-1.8570557,0.3490295-6.9862671-2.9962463-5.1259766
			c-6.049408,3.3640747-12.6299744,7.1782227-19.7606506,7.2140808c-5.328949,0.0267944-10.8555908-2.2030334-13.2552795-7.2094116
			c-0.6928406-1.4454346-2.7584839-1.8267822-4.0611267-1.0648499
			C336.9893494,485.7324829,336.7068787,487.478363,337.4023132,488.9291992L337.4023132,488.9291992z"/>
	</g>
	<g>
		<path class="st19" d="M402.0160217,486.6818848c-0.2465515,4.0080261,3.2860413,6.8608704,6.9775391,7.2828674
			c3.7146301,0.4246521,7.816864-0.8545227,11.3457642-1.9295654c7.0386658-2.1442261,13.709198-5.4772644,19.6287231-9.8454285
			c1.2879333-0.9504089,1.9354553-2.5726624,1.0648499-4.0611267c-0.743042-1.2703857-2.7638855-2.0220947-4.0610962-1.0648499
			c-4.6795959,3.453186-9.8108521,6.3057861-15.2888794,8.276886c-1.6783142,0.6039124-13.9506531,4.9216614-13.7304382,1.341217
			C408.1871948,482.8663635,402.2498779,482.8802795,402.0160217,486.6818848L402.0160217,486.6818848z"/>
	</g>
	<g>
		<path class="st19" d="M263.5352173,536.1992188c4.4695435,9.0638428,11.8516235,16.7387085,20.7788696,21.4943237
			c10.0921021,5.3761597,21.813324,6.9550171,33.0009155,4.7359619c1.5732422-0.3120728,2.475647-2.1865845,2.0731506-3.6513062
			c-0.4508972-1.640686-2.0735168-2.3860474-3.6512756-2.0731201c-9.7280884,1.9295654-20.1229858,0.4001465-28.8361816-4.3584595
			c-7.9300232-4.3308716-14.250061-11.0534058-18.239502-19.1436768c-0.7088623-1.4375-2.7474976-1.8331909-4.0610962-1.0648804
			C263.134491,532.9953003,262.8237305,534.7562866,263.5352173,536.1992188L263.5352173,536.1992188z"/>
	</g>
	<g>
		<path class="st19" d="M334.8572388,548.2631836c2.7457886,7.8903809,10.7701721,11.8980103,18.7633972,12.0059814
			c9.5134888,0.128479,18.1445618-4.4664917,27.3833618-5.9568481c1.5838623-0.2554932,2.4647522-2.2263184,2.0731506-3.6513062
			c-0.4629822-1.6846924-2.0627441-2.3293457-3.6512756-2.0731201c-7.9775085,1.2868652-15.4614563,5.1405029-23.5657043,5.682251
			c-5.8014526,0.3878174-13.1315918-1.4156494-15.2785034-7.585083c-0.5266418-1.5134277-2.0323181-2.5180664-3.6512756-2.0731812
			C335.4606934,545.0158081,334.3279724,546.7422485,334.8572388,548.2631836L334.8572388,548.2631836z"/>
	</g>
	<g>
		<path class="st19" d="M409.6889343,550.0039062c15.0113525-0.036499,29.2908325-7.552124,38.0309143-19.7017822
			c0.936676-1.302124,0.2261963-3.3059692-1.0648804-4.0610962c-1.4951782-0.8745728-3.1222229-0.2402954-4.0610962,1.0648193
			c-7.4938354,10.4172974-20.1167908,16.7304688-32.9049377,16.7615967
			C405.8695068,544.0767212,405.8623962,550.0131836,409.6889343,550.0039062L409.6889343,550.0039062z"/>
	</g>
	<g>
		<path class="st19" d="M307.4033203,513.4443359c10.5933838,5.0559082,22.8637695,5.9890137,34.0366516,2.2706299
			c3.6072388-1.2005005,2.0612488-6.9356079-1.578125-5.7244263c-9.6159668,3.2002563-20.2823486,2.7091675-29.4622498-1.6721802
			c-1.4459229-0.690094-3.2046814-0.3994141-4.0611267,1.0648499
			C305.5809326,510.6783752,305.9503174,512.7508545,307.4033203,513.4443359L307.4033203,513.4443359z"/>
	</g>
	<g>
		<path class="st19" d="M383.9205322,519.5842896c2.6168213,2.2438965,5.8388977,2.8987427,9.2236938,2.7315063
			c3.7344971-0.1845703,7.4976807-0.8082886,11.1763916-1.4512329c7.434082-1.2991943,14.7339783-3.2732544,21.8242188-5.8547363
			c1.5055847-0.5481567,2.5223999-2.0165405,2.0731506-3.6512756c-0.3990784-1.4521179-2.1375732-2.6242676-3.6513062-2.0731506
			c-6.389679,2.3264465-12.9486084,4.1621704-19.6264343,5.4506836c-3.2138367,0.6201782-6.4501038,1.1209106-9.7051697,1.4667358
			c-2.1637878,0.2298584-5.297821,0.7435303-7.1168213-0.8162842c-1.216217-1.0429077-3.0031433-1.1945801-4.1977234,0
			C382.8526917,516.4544067,382.6982422,518.5361328,383.9205322,519.5842896L383.9205322,519.5842896z"/>
	</g>
	<g>
		<path class="st19" d="M296.5281677,586.2076416c4.5065613,7.4321289,12.8546448,11.1804199,21.0850525,12.8474121
			c10.1455994,2.0549316,20.6708069,1.6893311,30.6549988-1.0377808c3.6809692-1.0054321,2.1184082-6.7340698-1.578125-5.7244263
			c-8.7497864,2.3899536-18.0327148,2.8710938-26.9551697,1.1452026c-6.8438721-1.3237915-14.2821045-3.9619141-18.08078-10.2266846
			C299.6759033,579.9489136,294.5401611,582.9290771,296.5281677,586.2076416L296.5281677,586.2076416z"/>
	</g>
	<g>
		<path class="st19" d="M378.780304,604.0372314c21.0994263,0.7175903,42.296051-5.0736084,60.0952759-16.4272461
			c3.2115784-2.048584,0.2373962-7.1885986-2.9962463-5.1259766
			c-16.9772949,10.8293457-36.9732056,16.3012085-57.0990295,15.6167603
			C374.9592896,597.9708252,374.9641724,603.9074707,378.780304,604.0372314L378.780304,604.0372314z"/>
	</g>
	<g>
		<path class="st19" d="M246.9044952,620.0892334c0.0887299,8.399231,7.4923706,14.0505981,14.4583893,17.2649536
			c7.990448,3.6871338,16.8382874,5.3100586,25.6141357,4.4837036c1.5960083-0.1502686,2.9682617-1.2566528,2.9682617-2.9682007
			c0-1.4888916-1.3627319-3.1194458-2.9682617-2.9682617c-7.3727722,0.6942749-14.8462219-0.3399658-21.6771851-3.2512207
			c-5.110321-2.1779785-12.3911743-6.1525269-12.4588776-12.5609741
			C252.8006287,616.2715454,246.8640442,616.2617188,246.9044952,620.0892334L246.9044952,620.0892334z"/>
	</g>
	<g>
		<path class="st19" d="M335.8378601,634.3032837c2.2827148,7.8321533,11.6134949,6.3613892,17.7224426,5.199585
			c7.0160522-1.3343506,13.7917175-3.6399536,20.2463379-6.6837769c1.4498596-0.6837158,1.8231506-2.7647095,1.0648804-4.0610962
			c-0.8684387-1.4847412-2.605835-1.7511597-4.0611267-1.0648804c-5.1671143,2.4367065-10.6003113,4.2779541-16.1731873,5.5338135
			c-2.6988525,0.6082153-5.4823303,1.1981812-8.2501221,1.3619995c-1.6296997,0.0964966-4.2605286,0.0723267-4.8247986-1.8637695
			C340.4954529,629.0647583,334.7649841,630.6221313,335.8378601,634.3032837L335.8378601,634.3032837z"/>
	</g>
	<g>
		<path class="st19" d="M445.5965271,626.2797241c1.1446228,5.5235596,6.3840027,9.5809326,11.5223389,11.2197266
			c5.6266174,1.7944946,12.4329529-0.3566895,14.3043213-6.3781128c0.4756165-1.5304565-0.5636902-3.2365723-2.0731506-3.6513062
			c-1.5923462-0.4375-3.1737976,0.5368042-3.6512756,2.0731201c-0.1558838,0.5016479,0.0755005-0.0576172-0.0576782,0.22052
			c-0.102417,0.2139282-0.2250977,0.4116211-0.3453064,0.6159058c-0.0968628,0.1645508-0.2442322,0.3125-0.0429993,0.0789185
			c-0.1549683,0.1798706-0.3186646,0.3504639-0.4909058,0.5136719c-0.0674133,0.0638428-0.5491638,0.4472046-0.1720886,0.1732788
			c-0.1551819,0.1127319-0.3176575,0.2177734-0.4815979,0.3172607c-0.2071838,0.1257324-0.4200134,0.2363281-0.6359558,0.345459
			c-0.2626953,0.1326904,0.2562866-0.052124-0.2290955,0.0892944c-0.2323914,0.067749-0.4605103,0.1445923-0.696167,0.2021484
			c-0.0514832,0.0125732-0.6139526,0.1345825-0.3145142,0.0823364c0.3538208-0.0618286-0.4981689,0.0371704-0.5812988,0.0401611
			c-0.2872925,0.010498-0.5747375,0.0057983-0.8617249-0.0093384c-0.5328674-0.0281372-0.4970093-0.0266113-1.0878906-0.1617432
			c-0.5653992-0.1293335-1.119873-0.3032227-1.6636047-0.5042725c-1.4848633-0.5491333-3.2642517-1.7462158-4.2888489-2.7154541
			c-1.3786316-1.3041992-2.0577393-2.3423462-2.4281311-4.1297607c-0.3254395-1.5703735-2.1771545-2.4782104-3.6512756-2.0731201
			C446.0394287,623.076416,445.2701721,624.7047119,445.5965271,626.2797241L445.5965271,626.2797241z"/>
	</g>
	<g>
		<path class="st19" d="M274.2633362,666.421814c5.7050171,5.4035034,13.8499756,5.2119751,21.1765137,4.7095337
			c9.1385498-0.626709,18.2398376-1.8543701,27.2254639-3.6295166c1.5734863-0.3108521,2.4754028-2.187439,2.0731201-3.6512451
			c-0.4511414-1.6416626-2.0732422-2.3848877-3.6512756-2.0731812c-8.0930481,1.5988159-16.2626343,2.7226562-24.4898987,3.3347168
			c-5.7828369,0.4302368-13.5072021,1.4963379-18.1362-2.8880005
			C275.6879883,659.5975952,271.482666,663.788147,274.2633362,666.421814L274.2633362,666.421814z"/>
	</g>
	<g>
		<path class="st19" d="M398.4698486,670.7028809c10.9822693,1.4509277,22.326355-0.9700928,31.848053-6.6046753
			c3.2854004-1.9441528,0.3023682-7.0779419-2.9962463-5.1259766c-8.7103577,5.1544189-18.8311462,7.118042-28.8518066,5.7941895
			c-1.592041-0.2103271-2.9682312,1.5147705-2.9682312,2.9682617
			C395.5016174,669.5132446,396.8730469,670.4919434,398.4698486,670.7028809L398.4698486,670.7028809z"/>
	</g>
	<g>
		<path class="st19" d="M310.3350525,227.3819733c3.2361755,5.3236542,9.3795471,7.5062866,15.3708801,7.5958862
			c7.2249451,0.1080627,13.9555664-3.1671295,21.1165771-3.5363312c3.801239-0.1959686,3.8245239-6.1336517,0-5.9364777
			c-6.6410217,0.342392-12.8634338,3.1378174-19.4655762,3.502182c-4.3091125,0.237793-9.4759521-0.6405792-11.8959045-4.621521
			C313.4792786,221.1256714,308.3433533,224.1055298,310.3350525,227.3819733L310.3350525,227.3819733z"/>
	</g>
	<g>
		<path class="st19" d="M396.3320312,235.4745636c4.0444031,3.652359,9.5727234,5.1020508,14.947052,4.5595245
			c6.0318298-0.608902,11.4783325-3.2387848,16.8282471-5.9233246c1.4324646-0.7187958,1.8371887-2.7406464,1.0648499-4.0611115
			c-0.8527832-1.4579468-2.6232605-1.7863617-4.0611267-1.0648499c-7.0334167,3.5293121-17.5335388,8.656601-24.5812988,2.292038
			C397.7005615,228.7219238,393.4893188,232.9074554,396.3320312,235.4745636L396.3320312,235.4745636z"/>
	</g>
	<g>
		<path class="st19" d="M327.1970215,282.1266174c12.9878235,2.2692261,26.20578,2.6609192,39.2892456,0.9884338
			c1.5898132-0.2032166,2.9682312-1.2187195,2.9682312-2.9682312c0-1.4460449-1.3669739-3.1729126-2.9682312-2.9682312
			c-12.5256653,1.6011658-25.266571,1.3979187-37.7110901-0.7763977c-1.5773926-0.2755737-3.197937,0.4232788-3.6512756,2.0731506
			C324.7305908,279.9067078,325.609314,281.8492126,327.1970215,282.1266174L327.1970215,282.1266174z"/>
	</g>
	<g>
		<path class="st19" d="M392.2224731,280.0197144c7.4261475-0.7489929,14.730011-2.2822876,21.7915039-4.708313
			c1.5154724-0.5206299,2.5168457-2.0367126,2.0731201-3.6512756c-0.4052429-1.4745789-2.128418-2.5963135-3.6512756-2.0731201
			c-6.5432129,2.2479553-13.3267517,3.8016357-20.2133484,4.4962463c-1.5948792,0.1608582-2.9682312,1.249054-2.9682312,2.9682312
			C389.2542419,278.5317993,390.6177063,280.1815796,392.2224731,280.0197144L392.2224731,280.0197144z"/>
	</g>
	<g>
		<path class="st19" d="M315.1086731,194.8521118c6.3066711,3.5687561,13.1619263,6.2126923,20.2584229,7.6967773
			c3.5062866,0.7332611,7.0860291,1.2104797,10.6627808,1.410553c3.7056885,0.2072906,7.5617676,0.0920258,11.0303955-1.3598328
			c1.4776306-0.6184998,2.5366821-1.9644318,2.0731201-3.6512756c-0.3830872-1.394043-2.163147-2.6960297-3.6512756-2.0731354
			c-3.0438538,1.2740631-6.2015076,1.3305206-9.45224,1.1477661c-3.2330322-0.1817474-6.4334717-0.6212463-9.5978394-1.3077393
			c-6.4413452-1.3974304-12.5924377-3.743988-18.3271179-6.9890747
			C314.7753906,187.8420563,311.7801514,192.9685974,315.1086731,194.8521118L315.1086731,194.8521118z"/>
	</g>
	<g>
		<path class="st19" d="M389.7776794,201.1831207c7.6422119-0.550293,15.159729-2.1808624,22.2955017-4.9806671
			c1.4913635-0.585144,2.5299072-1.989212,2.0731201-3.6512756c-0.390686-1.4217072-2.1506042-2.6619415-3.6512756-2.0731354
			c-6.6325073,2.6023407-13.6079102,4.2566681-20.7173462,4.7686005c-1.5991211,0.1151428-2.9682617,1.2817993-2.9682617,2.9682465
			C386.8094177,199.7320709,388.170105,201.2988739,389.7776794,201.1831207L389.7776794,201.1831207z"/>
	</g>
	<path class="st24" d="M470.1289062,443.7893677c-24.1682129,3.6914673-48.6479492,7.2306519-73.2075195,9.5476685
		c-10.0058594,0.3647461-20.0268555,0.5045776-30.0307617,0.5791016
		c-22.6235352,0.1685181-45.2770996,0.3653564-67.8920898-0.380188
		c-14.6252441-1.7075195-29.1699219-4.3549194-43.5812988-8.2077637c-6.6506348-1.7780151-9.4880371,8.5267944-2.8405762,10.3039551
		c1.0039062,0.2684326,2.0107422,0.510498,3.0158691,0.7678223c0.1472168,2.5643921,1.8493652,5.1696777,5.1008301,5.4767456
		c12.5888672,1.1890259,25.2041016,1.9074707,37.8317871,2.3352661c29.5461426,3.3560791,59.3884277,2.9365234,89.1696777,0.5545654
		c-46.847168,13.8321533-93.1088867,30.2442627-142.1762695,33.0250244c-6.8369141,0.3874512-6.8818359,11.0756836,0,10.6856689
		c76.9992676-4.3637695,146.765625-42.145752,222.8984375-51.0914307c2.2385254-0.2630615,3.7385254-1.617981,4.5007324-3.2793579
		c0.0170898-0.0045776,0.0344238-0.0085449,0.0517578-0.0131226
		C479.7780762,452.291687,476.7561035,442.7771606,470.1289062,443.7893677z"/>
	<path class="st25" d="M452.5090332,468.1643066c0.4763184-0.0795898-4.9709473-5.6776123-5.1677246-5.8781128
		c-2.0551758-2.0947266-4.0024414-4.2794189-5.9013672-6.5160522c-1.7490234-2.0598755-4.0246582-2.043335-5.8720703-0.9833374
		c-2.1936035-0.3123779-4.7470703,0.6167603-5.9897461,2.420105c-5.1940918,7.5362549-8.5654297,15.9272461-9.9714355,24.9753418
		c-1.045166,6.727417,9.2497559,9.6260376,10.3039551,2.8406982c0.2475586-1.5932007,0.5744629-3.1427002,0.9438477-4.6708984
		c2.5673828,2.8287354,8.4404297,2.6303711,9.3005371-1.9533081c0.4055176-2.161438,0.7724609-4.3278198,1.1228027-6.496521
		c4.0512695,4.1241455,8.7817383,7.4501953,14.0717773,6.56604
		C462.1169434,477.3371582,459.246582,467.038208,452.5090332,468.1643066z"/>
	<path class="st26" d="M407.4619141,479.9989014c-0.1176758-0.1172485-0.2709961-0.2518311-0.4904785-0.4185181
		c-0.7092285-0.7445068-1.4182129-1.4890137-2.1274414-2.2335815c-1.1818848-1.2408447-2.3635254-2.4817505-3.5454102-3.7225952
		c-2.6000977-2.7299194-5.1999512-5.4598999-7.8000488-8.1898193c-2.2197266-2.3306885-5.0947266-1.9089966-7.0268555-0.1937866
		c-1.2802734,0.2516479-2.4694824,1.0446167-3.265625,2.5535889c-2.8334961,5.37146-5.6672363,10.7429199-8.5007324,16.1143799
		c-3.2062988,6.0778809,6.0134277,11.484436,9.2268066,5.3932495c0.0078125-0.0151367,0.0158691-0.0302124,0.0239258-0.0453491
		c1.6188965,5.5010986,10.7399902,5.1865845,10.4560547-1.2738647c-0.0913086-2.0714722-0.1088867-4.135437-0.0927734-6.1971436
		c1.2260742,1.2872314,2.4519043,2.5745239,3.6779785,3.8617554c3.2199707,3.3807983,6.2775879,6.2294922,11.1933594,4.8555908
		C415.4213867,488.7612915,413.2866211,479.5106201,407.4619141,479.9989014z"/>
	<path class="st27" d="M347.8898926,493.9805298c-3.8937988-2.4389038-7.7878418-4.8778687-11.6816406-7.3167725
		c-3.1901855-1.998291-6.2268066-4.5903931-10.1535645-4.0690308c-2.5119629,0.3335571-4.0629883,1.5892334-5.0083008,3.3380737
		c-2.0375977-0.1564331-4.1586914,0.6774292-5.0073242,2.5933228c-2.1149902,4.7740479-4.2297363,9.5481567-6.3447266,14.3222046
		c-2.7602539,6.2313232,6.4443359,11.6746216,9.2268066,5.3932495c0.6386719-1.4416504,1.2773438-2.8833008,1.9157715-4.3249512
		c2.4333496,4.6879883,9.918457,2.1565552,9.8686523-2.8433838c-0.0126953-1.2731934-0.2080078-3.5646362-0.3193359-5.6902466
		c4.1245117,2.4734497,8.1157227,5.3222046,12.1103516,7.8242798
		C348.3413086,506.8681641,353.7109375,497.6265869,347.8898926,493.9805298z"/>
	<path class="st28" d="M324.6582031,468.1268311c-7.527832,1.1421509-7.3664551-16.3780518-16.3632812-15.7388916
		c-3.6462402,0.2590332-6.0510254,3.0401611-7.5844727,6.4836426c-5.6933594,2.3862915-11.2631836,5.0038452-16.6972656,7.9597168
		c-6.0427246,3.2871094-0.6552734,12.5169678,5.3933105,9.2267456c3.0148926-1.6400757,6.0700684-3.1868286,9.1677246-4.6431274
		c1.3344727,4.5326538,8.5229492,4.3911743,10.2705078-0.4117432c0.3898926-1.0714722,0.6801758-2.1347046,0.9267578-3.2030029
		c1.3452148,2.5665894,2.670166,5.1992798,4.8378906,7.1077881c3.7575684,3.3082275,8.0410156,4.2584229,12.8896484,3.5228271
		C334.2753906,477.4025879,331.3964844,467.1044922,324.6582031,468.1268311z"/>
	<path class="st29" d="M291.7353516,521.0234985c-10.0800781-4.9264526-18.9265137-11.3519287-26.6772461-19.4685669
		c-1.1777344-1.2333984-3.0666504-1.6784668-4.8098145-1.4025269c-2.4008789-3.1191406-7.7868652-1.6918335-9.3364258,2.0826416
		c-2.0664062,5.0338135-4.6445312,9.7897339-7.5510254,14.383667c-3.6875,5.8283691,5.5556641,11.1956787,9.2268066,5.3932495
		c0.3791504-0.5991211,0.7473145-1.2021484,1.1113281-1.8068848c2.0310059,3.9833984,8.2548828,4.4845581,9.8706055-0.7217407
		c0.375-1.208313,0.7119141-2.4182129,1.0283203-3.6305542c6.5876465,5.7050781,13.8552246,10.5419312,21.7441406,14.3974609
		C292.496582,533.2582397,297.9194336,524.0459595,291.7353516,521.0234985z"/>
	<path class="st30" d="M404.2543945,166.0179443c-2.1469727-8.4490967-9.6767578-8.5151367-17.0786133-6.5288696
		c-1.2485352-3.3218384-4.6245117-5.5718384-8.2324219-5.739563c-9.7746582-0.4545288-11.1210938,9.5634766-9.6083984,17.3803711
		c-0.6416016,1.1343994-0.8623047,2.4766846-0.3630371,3.8170776c2.7885742,7.4852905,7.1237793,21.3052979,18.1008301,17.5441284
		c2.5993652-0.890686,4.0234375-2.4845581,4.6386719-4.4286499c2.6328125,0.605957,5.2131348,0.1372681,7.4272461-2.302124
		c3.7412109-4.1218872,2.1525879-7.5925293-0.9533691-10.3651733
		C402.5776367,173.5060425,405.4128418,170.5775146,404.2543945,166.0179443z"/>
	<path class="st31" d="M415.7275391,145.1712646c-0.4587402-2.5001221-2.9394531-3.649231-5.1518555-3.9224854
		c-3.8415527-0.4743652-8.1477051,2.7370605-11.2277832,4.6259766c-4.4155273,2.7079468-8.7756348,5.5048828-13.1357422,8.3009644
		c-5.317627,3.4103394-1.1887207,11.5272217,4.0397949,9.8649292c1.9052734,1.6090698,4.7607422,2.0419922,7.026123-0.2462769
		C403.185791,157.8265381,417.8635254,156.8101196,415.7275391,145.1712646z"/>
	<path class="st31" d="M380.0556641,182.5875854c-0.253418-0.2591553-0.5517578-0.4869385-0.8764648-0.6867065
		c-1.0998535-2.7658081-4.2314453-4.7733154-7.5419922-2.8131714c-6.809082,4.0315552-14.8896484,6.9405518-18.2827148,14.7335815
		c-2.1210938,4.8724365,2.2470703,9.795105,7.3100586,7.3099976c3.3635254-1.6508789,7.2563477-1.8984985,10.6894531-3.4533081
		c3.6455078-1.6508789,6.2861328-4.4160156,8.7016602-7.5344849
		C381.8356934,187.8455811,382.2539062,184.8342896,380.0556641,182.5875854z"/>
	<path class="st31" d="M336.2714844,155.8809814c-0.9101562-2.4541626-0.4108887-5.1923218-1.3652344-7.7163696
		c-0.9594727-2.5372314-2.6677246-4.5770874-4.4470215-6.5839233c-1.5749512-1.7763062-3.0144043-4.3683472-5.0053711-5.659729
		c-2.8461914-1.8461914-5.8623047-0.8682861-8.2785645,1.0915527c-10.2424316,8.3077393,0.9382324,21.8901367,9.4304199,26.2857056
		c2.5837402,1.3374023,5.0402832,0.4501343,6.5529785-1.2536621
		C335.6125488,161.2653198,337.4313965,159.0083618,336.2714844,155.8809814z"/>
	<path class="st31" d="M335.6081543,174.0230713c-5.2270508-4.4050293-12.8234863,3.1168213-7.5559082,7.5559082
		c0.0383301,0.0323486,0.0773926,0.0641479,0.1157227,0.0964966c0.2001953,0.7286377,0.5646973,1.4511108,1.1350098,2.133728
		c3.6213379,4.3356934,6.8417969,8.9355469,9.765625,13.7683105c2.2895508,3.7843018,8.7019043,3.3196411,9.7653809-1.2762451
		C351.222168,185.9805298,342.5336914,179.8596191,335.6081543,174.0230713z"/>
	<path class="st29" d="M358.3413086,153.8881226c-3.6362305,1.1903687-7.0849609,3.0811157-9.8430176,5.644104
		c-0.8525391-1.3877563-1.8918457-2.6600342-3.0490723-3.7484741c-3.390625-4.6777344-7.6123047-8.3206787-13.5214844-5.9082642
		c-7.7055664,3.1459351-11.5830078,12.7318726-5.4206543,19.1921387c-2.026123,1.2073364-3.9682617,2.4671631-5.7873535,3.6253052
		c-4.8046875,3.0588379-2.3779297,9.3135986,2.6965332,9.9562378c6.2131348,0.7868042,12.0339355-0.7202148,16.9492188-3.8883667
		c1.4833984,3.9506226,3.8820801,7.4116821,7.9711914,9.5015259c4.8041992,2.4555054,11.5563965,1.7486572,14.4538574-3.25
		c2.9753418-5.1334229-0.3510742-9.2116699-4.2246094-12.2808838c4.8447266-2.0150757,9.6813965-5.4070435,10.4553223-9.9716797
		C370.1391602,156.1660156,364.3776855,151.9121094,358.3413086,153.8881226z"/>
	<path class="st32" d="M383.387207,128.8422241c-3.6359863,1.1903687-7.0849609,3.0811157-9.8430176,5.644104
		c-0.8522949-1.3876953-1.8913574-2.6598511-3.048584-3.74823c-3.3908691-4.6778564-7.612793-8.3210449-13.5219727-5.9085693
		c-7.7055664,3.1459351-11.5830078,12.7319946-5.4206543,19.1921997c-2.026123,1.2073364-3.9682617,2.4671631-5.7873535,3.6253052
		c-4.8046875,3.0588379-2.3779297,9.3135986,2.6965332,9.9561768c6.2131348,0.7868042,12.0339355-0.7201538,16.9492188-3.8883057
		c1.4833984,3.9506226,3.8820801,7.4116821,7.9711914,9.5015259c4.8041992,2.4555054,11.5563965,1.7485962,14.4538574-3.250061
		c2.9753418-5.1334229-0.3510742-9.2116699-4.2246094-12.2808838c4.8447266-2.0151367,9.6816406-5.4070435,10.4553223-9.9716797
		C395.1850586,131.1201172,389.423584,126.8662109,383.387207,128.8422241z"/>
	<path class="st33" d="M434.8032227,158.9451904c-3.6362305,1.1903687-7.0852051,3.0811157-9.8432617,5.644104
		c-0.8522949-1.3876953-1.8916016-2.6600342-3.0488281-3.7484131c-3.390625-4.6777954-7.6125488-8.3208008-13.5214844-5.9083862
		c-7.7058105,3.1459351-11.583252,12.7319336-5.4208984,19.1921997c-2.0258789,1.2073364-3.9682617,2.4671631-5.7873535,3.6253052
		c-4.8044434,3.0588379-2.3776855,9.3135986,2.6965332,9.9561768c6.2133789,0.7868042,12.0341797-0.7201538,16.9492188-3.8883057
		c1.4833984,3.9506226,3.8823242,7.4116821,7.9711914,9.5015259c4.8041992,2.4555054,11.5566406,1.7485962,14.4538574-3.250061
		c2.9753418-5.1334839-0.3510742-9.2116699-4.2246094-12.2808838c4.8447266-2.0151367,9.6816406-5.4070435,10.4553223-9.9716797
		C446.6008301,161.2230835,440.8393555,156.9691162,434.8032227,158.9451904z"/>
	<path class="st34" d="M317.7629395,158.9451904c-3.6362305,1.1903687-7.0852051,3.0811157-9.8432617,5.644104
		c-0.8522949-1.3876953-1.8916016-2.6600342-3.0488281-3.7484131c-3.3908691-4.6777954-7.6125488-8.3208008-13.5214844-5.9083862
		c-7.7058105,3.1459351-11.583252,12.7319946-5.4206543,19.1921997c-2.026123,1.2073364-3.9685059,2.4671631-5.7875977,3.6253052
		c-4.8046875,3.0588379-2.3779297,9.3135986,2.6965332,9.9561768c6.2131348,0.7868042,12.0339355-0.7201538,16.9492188-3.8883057
		c1.4836426,3.9506226,3.8823242,7.4116821,7.9711914,9.5015259c4.8041992,2.4555054,11.5563965,1.7485962,14.4538574-3.250061
		c2.9753418-5.1334839-0.3510742-9.2116699-4.2246094-12.2808838c4.8447266-2.0151367,9.6816406-5.4070435,10.4553223-9.9716797
		C329.5605469,161.2230835,323.7993164,156.9691162,317.7629395,158.9451904z"/>
	<g>
		<path class="st35" d="M384.2139587,178.9644012c6.8757019,0,6.887085-10.6856537,0-10.6856537
			C377.3382263,168.2787476,377.3268433,178.9644012,384.2139587,178.9644012L384.2139587,178.9644012z"/>
	</g>
	<g>
		<path class="st35" d="M343.9119568,173.9408875c6.8757019,0,6.887085-10.6856537,0-10.6856537
			C337.0362549,163.2552338,337.0248413,173.9408875,343.9119568,173.9408875L343.9119568,173.9408875z"/>
	</g>
	<g>
		<path class="st35" d="M368.9578552,148.8949585c6.8757324,0,6.8871155-10.6856537,0-10.6856537
			C362.0821533,138.2093048,362.0707703,148.8949585,368.9578552,148.8949585L368.9578552,148.8949585z"/>
	</g>
	<g>
		<path class="st35" d="M420.3737183,178.9979248c6.8757019,0,6.887085-10.6856537,0-10.6856537
			C413.4980164,168.3122711,413.4866333,178.9979248,420.3737183,178.9979248L420.3737183,178.9979248z"/>
	</g>
	<g>
		<path class="st36" d="M304.4168701,179.1185913c6.8757019,0,6.887085-10.6856537,0-10.6856537
			C297.5411682,168.4329376,297.5297852,179.1185913,304.4168701,179.1185913L304.4168701,179.1185913z"/>
	</g>
</g>
</svg>
